<svg width="65" height="65" viewBox="0 0 65 65" fill="none" xmlns="http://www.w3.org/2000/svg">
<circle cx="32.5" cy="32.5" r="32" fill="white" stroke="#181926"/>
<g clip-path="url(#clip0_628_9)">
<path d="M31.6809 43.2425C31.6206 43.4589 31.4815 43.6509 31.2857 43.7882C31.0898 43.9254 30.8485 44 30.6 44C30.5061 44.0004 30.4126 43.9903 30.3214 43.97L25.8643 42.97C25.7402 42.942 25.6224 42.8951 25.5161 42.8313L22.1732 40.8313C21.9274 40.6841 21.7568 40.4553 21.6989 40.1952C21.6411 39.9351 21.7007 39.665 21.8647 39.4444C22.0287 39.2238 22.2837 39.0706 22.5735 39.0187C22.8633 38.9668 23.1642 39.0203 23.4101 39.1675L26.5914 41.0713L30.8619 42.03C31.0046 42.0611 31.139 42.1171 31.2575 42.1949C31.3759 42.2727 31.4761 42.3708 31.5522 42.4835C31.6283 42.5962 31.6789 42.7212 31.701 42.8515C31.723 42.9817 31.7162 43.1146 31.6809 43.2425ZM50.1627 31.185C50.0713 31.4342 49.9257 31.6647 49.7345 31.8632C49.5432 32.0617 49.31 32.2241 49.0484 32.3413L45.7501 33.8213L43.6497 35.7075L38.0783 40.7075C37.9421 40.8296 37.773 40.9179 37.5875 40.9639C37.402 41.0099 37.2064 41.012 37.0197 40.97L28.1054 38.97C27.9698 38.9395 27.8418 38.8865 27.7279 38.8138L19.9948 33.8588L16.6129 32.3413C16.0844 32.1041 15.6824 31.6884 15.4954 31.1853C15.3084 30.6823 15.3517 30.1332 15.6157 29.6588L19.0769 23.4475C19.3411 22.9732 19.8044 22.6124 20.365 22.4446C20.9255 22.2768 21.5373 22.3156 22.066 22.5525L25.1386 23.9275L32.5208 22.035C32.721 21.9836 32.9334 21.9836 33.1336 22.035L40.5158 23.9275L43.5884 22.5525C44.1171 22.3156 44.7289 22.2768 45.2894 22.4446C45.85 22.6124 46.3133 22.9732 46.5775 23.4475L50.0387 29.6588C50.1707 29.8932 50.2497 30.1488 50.271 30.4108C50.2922 30.6727 50.2554 30.9359 50.1627 31.185ZM41.1857 35.0825L37.3261 32.3088C34.6045 34.3088 31.1488 34.5725 28.2851 32.9338C28.0034 32.773 27.7656 32.5574 27.5892 32.303C27.4127 32.0486 27.3023 31.762 27.2659 31.4641C27.2295 31.1663 27.2682 30.8649 27.379 30.5823C27.4899 30.2997 27.67 30.043 27.9062 29.8313C27.9096 29.8276 27.9133 29.8243 27.9174 29.8213L34.1657 24.3825L32.8286 24.04L25.8058 25.8413L21.9936 32.6825L28.8464 37.0763L36.9445 38.8925L41.1857 35.0825ZM43.7263 32.8025L39.9405 26H35.5084L29.4857 31.25C31.2491 32.2613 34.0139 32.54 36.4946 30.2963C36.6883 30.121 36.9475 30.0163 37.2221 30.0022C37.4967 29.9881 37.7674 30.0657 37.9822 30.22L42.775 33.6663L43.7263 32.8025Z" fill="black"/>
</g>
<defs>
<clipPath id="clip0_628_9">
<rect width="35.6571" height="32" fill="white" transform="translate(15 16)"/>
</clipPath>
</defs>
</svg>
