<svg width="45" height="45" viewBox="0 0 45 45" fill="none" xmlns="http://www.w3.org/2000/svg">
<circle cx="22.6835" cy="22.2646" r="21.9221" fill="white" stroke="#181926" stroke-width="0.685065"/>
<g clip-path="url(#clip0_517_709)">
<path d="M20.2857 29.8002C20.2857 30.0712 20.2054 30.3361 20.0548 30.5614C19.9043 30.7867 19.6903 30.9623 19.4399 31.066C19.1896 31.1697 18.9141 31.1969 18.6483 31.144C18.3825 31.0911 18.1384 30.9606 17.9468 30.769C17.7551 30.5774 17.6247 30.3333 17.5718 30.0675C17.5189 29.8017 17.5461 29.5262 17.6498 29.2759C17.7535 29.0255 17.9291 28.8115 18.1544 28.661C18.3797 28.5104 18.6446 28.4301 18.9156 28.4301C19.279 28.4301 19.6275 28.5744 19.8844 28.8314C20.1414 29.0883 20.2857 29.4368 20.2857 29.8002ZM27.8214 28.4301C27.5504 28.4301 27.2855 28.5104 27.0602 28.661C26.8349 28.8115 26.6593 29.0255 26.5556 29.2759C26.4519 29.5262 26.4248 29.8017 26.4776 30.0675C26.5305 30.3333 26.661 30.5774 26.8526 30.769C27.0442 30.9606 27.2883 31.0911 27.5541 31.144C27.8199 31.1969 28.0954 31.1697 28.3458 31.066C28.5961 30.9623 28.8101 30.7867 28.9606 30.5614C29.1112 30.3361 29.1916 30.0712 29.1916 29.8002C29.1916 29.4368 29.0472 29.0883 28.7903 28.8314C28.5333 28.5744 28.1848 28.4301 27.8214 28.4301ZM31.7982 17.0623C31.7345 16.9759 31.6514 16.9058 31.5556 16.8574C31.4598 16.8091 31.354 16.7839 31.2467 16.784H16.2027L15.5082 14.352C15.4254 14.0663 15.2522 13.8151 15.0146 13.636C14.777 13.4569 14.4879 13.3596 14.1904 13.3586H12.75C12.5683 13.3586 12.3941 13.4308 12.2656 13.5593C12.1371 13.6878 12.0649 13.862 12.0649 14.0437C12.0649 14.2254 12.1371 14.3996 12.2656 14.5281C12.3941 14.6566 12.5683 14.7288 12.75 14.7288H14.1904L17.2886 25.5691C17.4125 25.9977 17.672 26.3746 18.0282 26.6433C18.3843 26.9121 18.8179 27.0583 19.2641 27.0599H27.4943C27.9342 27.0615 28.3628 26.9212 28.7167 26.6599C29.0706 26.3986 29.3308 26.0302 29.4587 25.6093L31.9018 17.6703C31.9333 17.5679 31.9403 17.4595 31.9223 17.354C31.9043 17.2484 31.8618 17.1485 31.7982 17.0623Z" fill="#181926"/>
</g>
<defs>
<clipPath id="clip0_517_709">
<rect width="21.9221" height="21.9221" fill="white" transform="translate(12.0649 11.3035)"/>
</clipPath>
</defs>
</svg>
