<svg width="65" height="65" viewBox="0 0 65 65" fill="none" xmlns="http://www.w3.org/2000/svg">
<circle cx="32.5" cy="32.5" r="32" fill="white" stroke="#181926"/>
<path d="M42 44H35.8175C36.8561 43.0727 37.8355 42.0811 38.75 41.0312C42.1812 37.085 44 32.925 44 29C44 26.0826 42.8411 23.2847 40.7782 21.2218C38.7153 19.1589 35.9174 18 33 18C30.0826 18 27.2847 19.1589 25.2218 21.2218C23.1589 23.2847 22 26.0826 22 29C22 32.925 23.8138 37.085 27.25 41.0312C28.1645 42.0811 29.1439 43.0727 30.1825 44H24C23.7348 44 23.4804 44.1054 23.2929 44.2929C23.1054 44.4804 23 44.7348 23 45C23 45.2652 23.1054 45.5196 23.2929 45.7071C23.4804 45.8946 23.7348 46 24 46H42C42.2652 46 42.5196 45.8946 42.7071 45.7071C42.8946 45.5196 43 45.2652 43 45C43 44.7348 42.8946 44.4804 42.7071 44.2929C42.5196 44.1054 42.2652 44 42 44ZM33 25C33.7911 25 34.5645 25.2346 35.2223 25.6741C35.8801 26.1136 36.3928 26.7384 36.6955 27.4693C36.9983 28.2002 37.0775 29.0044 36.9231 29.7804C36.7688 30.5563 36.3878 31.269 35.8284 31.8284C35.269 32.3878 34.5563 32.7688 33.7804 32.9231C33.0044 33.0775 32.2002 32.9983 31.4693 32.6955C30.7384 32.3928 30.1136 31.8801 29.6741 31.2223C29.2346 30.5645 29 29.7911 29 29C29 27.9391 29.4214 26.9217 30.1716 26.1716C30.9217 25.4214 31.9391 25 33 25Z" fill="black"/>
</svg>
