<svg width="65" height="65" viewBox="0 0 65 65" fill="none" xmlns="http://www.w3.org/2000/svg">
<circle cx="32.5" cy="32.5" r="32" fill="white" stroke="#181926"/>
<g clip-path="url(#clip0_481_46)">
<path d="M46 30C46.0005 29.907 45.9879 29.8144 45.9625 29.725L44.1688 23.45C44.0482 23.0336 43.7962 22.6675 43.4504 22.4061C43.1045 22.1448 42.6835 22.0023 42.25 22H23.75C23.3165 22.0023 22.8955 22.1448 22.5496 22.4061C22.2038 22.6675 21.9518 23.0336 21.8313 23.45L20.0388 29.725C20.0129 29.8144 19.9999 29.907 20 30V32C20 32.7762 20.1807 33.5418 20.5279 34.2361C20.875 34.9303 21.379 35.5343 22 36V44C22 44.5304 22.2107 45.0391 22.5858 45.4142C22.9609 45.7893 23.4696 46 24 46H42C42.5304 46 43.0391 45.7893 43.4142 45.4142C43.7893 45.0391 44 44.5304 44 44V36C44.621 35.5343 45.125 34.9303 45.4721 34.2361C45.8193 33.5418 46 32.7762 46 32V30ZM28 32C27.9998 32.5159 27.8666 33.023 27.6132 33.4724C27.3599 33.9217 26.9949 34.2982 26.5536 34.5653C26.1123 34.8325 25.6095 34.9813 25.0939 34.9975C24.5782 35.0136 24.0672 34.8965 23.61 34.6575C23.5404 34.6034 23.4639 34.5588 23.3825 34.525C22.9588 34.2538 22.6102 33.8804 22.3686 33.4392C22.127 32.9979 22.0003 32.503 22 32V31H28V32ZM36 32C36 32.7956 35.6839 33.5587 35.1213 34.1213C34.5587 34.6839 33.7957 35 33 35C32.2044 35 31.4413 34.6839 30.8787 34.1213C30.3161 33.5587 30 32.7956 30 32V31H36V32ZM44 32C43.9996 32.5032 43.8727 32.9981 43.6308 33.4394C43.389 33.8806 43.0401 34.2539 42.6162 34.525C42.5359 34.5589 42.4603 34.603 42.3913 34.6562C41.9341 34.8955 41.423 35.0129 40.9073 34.9969C40.3916 34.981 39.8887 34.8323 39.4473 34.5653C39.0058 34.2982 38.6407 33.9218 38.3872 33.4725C38.1336 33.0231 38.0003 32.516 38 32V31H44V32Z" fill="black"/>
</g>
<defs>
<clipPath id="clip0_481_46">
<rect width="32" height="32" fill="white" transform="translate(17 18)"/>
</clipPath>
</defs>
</svg>
