<svg width="35" height="35" viewBox="0 0 35 35" fill="none" xmlns="http://www.w3.org/2000/svg">
<rect width="35" height="35" rx="17.5" fill="white"/>
<path d="M26.4095 10.0949C25.3906 9.07848 24.0107 8.50691 22.5715 8.50516C21.1323 8.5034 19.751 9.07159 18.7295 10.0855L17.5033 11.2246L16.2761 10.0817C15.2549 9.06343 13.8711 8.49249 12.4289 8.49451C10.9868 8.49653 9.60456 9.07136 8.58626 10.0925C7.56795 11.1137 6.99701 12.4976 6.99903 13.9397C7.00105 15.3818 7.57587 16.7641 8.59704 17.7824L16.9736 26.2817C17.0434 26.3526 17.1266 26.4089 17.2183 26.4473C17.3101 26.4857 17.4085 26.5055 17.508 26.5055C17.6074 26.5055 17.7059 26.4857 17.7976 26.4473C17.8894 26.4089 17.9726 26.3526 18.0424 26.2817L26.4095 17.7824C27.4286 16.7627 28.001 15.3802 28.001 13.9386C28.001 12.4971 27.4286 11.1145 26.4095 10.0949ZM25.3455 16.7286L17.5033 24.6824L9.65641 16.7211C8.91795 15.9827 8.50309 14.9811 8.50309 13.9367C8.50309 12.8924 8.91795 11.8908 9.65641 11.1524C10.3949 10.4139 11.3964 9.99904 12.4408 9.99904C13.4851 9.99904 14.4867 10.4139 15.2252 11.1524L15.2439 11.1711L16.9924 12.7977C17.1311 12.9268 17.3137 12.9986 17.5033 12.9986C17.6929 12.9986 17.8754 12.9268 18.0142 12.7977L19.7627 11.1711L19.7814 11.1524C20.5204 10.4144 21.5222 10.0002 22.5666 10.0009C23.6109 10.0016 24.6122 10.4172 25.3502 11.1561C26.0881 11.8951 26.5023 12.8969 26.5016 13.9413C26.5009 14.9856 26.0854 15.9869 25.3464 16.7249L25.3455 16.7286Z" fill="#7C7C7C"/>
</svg>
