<svg width="46" height="46" viewBox="0 0 46 46" fill="none" xmlns="http://www.w3.org/2000/svg">
<circle cx="23.1111" cy="22.8889" r="22.3167" fill="white" stroke="#66BF6B" stroke-width="1.14444"/>
<path d="M13.7409 22.6027C13.7409 22.8162 13.8257 23.0208 13.9766 23.1717C14.1275 23.3227 14.3322 23.4074 14.5456 23.4074H30.3064L24.4373 29.2756C24.3625 29.3504 24.3032 29.4391 24.2627 29.5368C24.2223 29.6345 24.2014 29.7392 24.2014 29.8449C24.2014 29.9507 24.2223 30.0554 24.2627 30.153C24.3032 30.2507 24.3625 30.3395 24.4373 30.4142C24.512 30.489 24.6008 30.5483 24.6985 30.5888C24.7961 30.6292 24.9008 30.6501 25.0066 30.6501C25.1123 30.6501 25.217 30.6292 25.3147 30.5888C25.4124 30.5483 25.5011 30.489 25.5759 30.4142L32.8181 23.1721C32.8929 23.0973 32.9522 23.0086 32.9927 22.9109C33.0332 22.8132 33.0541 22.7085 33.0541 22.6027C33.0541 22.497 33.0332 22.3923 32.9927 22.2946C32.9522 22.1969 32.8929 22.1082 32.8181 22.0334L25.5759 14.7912C25.4249 14.6402 25.2201 14.5554 25.0066 14.5554C24.793 14.5554 24.5882 14.6402 24.4373 14.7912C24.2863 14.9422 24.2014 15.147 24.2014 15.3606C24.2014 15.5741 24.2863 15.7789 24.4373 15.9299L30.3064 21.7981H14.5456C14.3322 21.7981 14.1275 21.8828 13.9766 22.0337C13.8257 22.1847 13.7409 22.3893 13.7409 22.6027Z" fill="#66BF6B"/>
</svg>
