<svg width="46" height="46" viewBox="0 0 46 46" fill="none" xmlns="http://www.w3.org/2000/svg">
<circle cx="22.8889" cy="22.8889" r="22.3167" fill="white" stroke="#66BF6B" stroke-width="1.14444"/>
<path d="M32.8313 22.6027C32.8313 22.8162 32.7465 23.0208 32.5956 23.1717C32.4447 23.3227 32.24 23.4074 32.0266 23.4074H16.2658L22.135 29.2756C22.2097 29.3504 22.269 29.4391 22.3095 29.5368C22.3499 29.6345 22.3708 29.7392 22.3708 29.8449C22.3708 29.9507 22.3499 30.0554 22.3095 30.153C22.269 30.2507 22.2097 30.3395 22.135 30.4142C22.0602 30.489 21.9714 30.5483 21.8737 30.5888C21.7761 30.6292 21.6714 30.6501 21.5656 30.6501C21.4599 30.6501 21.3552 30.6292 21.2575 30.5888C21.1598 30.5483 21.0711 30.489 20.9963 30.4142L13.7541 23.1721C13.6793 23.0973 13.62 23.0086 13.5795 22.9109C13.539 22.8132 13.5181 22.7085 13.5181 22.6027C13.5181 22.497 13.539 22.3923 13.5795 22.2946C13.62 22.1969 13.6793 22.1082 13.7541 22.0334L20.9963 14.7912C21.1473 14.6402 21.3521 14.5554 21.5656 14.5554C21.7792 14.5554 21.984 14.6402 22.135 14.7912C22.2859 14.9422 22.3708 15.147 22.3708 15.3606C22.3708 15.5741 22.2859 15.7789 22.135 15.9299L16.2658 21.7981H32.0266C32.24 21.7981 32.4447 21.8828 32.5956 22.0337C32.7465 22.1847 32.8313 22.3893 32.8313 22.6027Z" fill="#66BF6B"/>
</svg>
