<svg width="86" height="16" viewBox="0 0 86 16" fill="none" xmlns="http://www.w3.org/2000/svg">
<path d="M7.81818 0L9.57347 5.40223L15.2537 5.40223L10.6583 8.74099L12.4136 14.1432L7.81818 10.8045L3.22277 14.1432L4.97806 8.74099L0.382649 5.40223L6.06289 5.40223L7.81818 0Z" fill="#DFA878"/>
<path d="M25.4091 0L27.1644 5.40223L32.8447 5.40223L28.2492 8.74099L30.0045 14.1432L25.4091 10.8045L20.8137 14.1432L22.569 8.74099L17.9736 5.40223L23.6538 5.40223L25.4091 0Z" fill="#DFA878"/>
<path d="M42.9999 0L44.7552 5.40223L50.4355 5.40223L45.8401 8.74099L47.5954 14.1432L42.9999 10.8045L38.4045 14.1432L40.1598 8.74099L35.5644 5.40223L41.2447 5.40223L42.9999 0Z" fill="#DFA878"/>
<path d="M60.5909 0L62.3462 5.40223L68.0264 5.40223L63.431 8.74099L65.1863 14.1432L60.5909 10.8045L55.9955 14.1432L57.7508 8.74099L53.1554 5.40223L58.8356 5.40223L60.5909 0Z" fill="#DFA878"/>
<path d="M78.1818 0L79.9371 5.40223L85.6174 5.40223L81.022 8.74099L82.7772 14.1432L78.1818 10.8045L73.5864 14.1432L75.3417 8.74099L70.7463 5.40223L76.4265 5.40223L78.1818 0Z" fill="#DFA878"/>
</svg>
